<svg xmlns="http://www.w3.org/2000/svg" xmlns:xlink="http://www.w3.org/1999/xlink" width="300" zoomAndPan="magnify" viewBox="0 0 224.87999 74.999997" height="100" preserveAspectRatio="xMidYMid meet" version="1.0"><defs><g/></defs><g fill="#ffffff" fill-opacity="1"><g transform="translate(11.929378, 52.363707)"><g><path d="M 3.757812 -29.222656 L 3.757812 16.941406 L 11.4375 16.941406 L 11.4375 0 L 17.683594 0 C 28.378906 0 33.460938 -10.695312 33.460938 -20.804688 C 33.460938 -28.960938 29.648438 -36.53125 22.289062 -36.53125 C 15.300781 -36.53125 12.125 -30.070312 11.4375 -25.890625 L 11.4375 -36.53125 C 8.683594 -34.941406 3.917969 -33.195312 0 -32.71875 L 0 -32.453125 C 2.59375 -32.453125 3.757812 -32.082031 3.757812 -29.222656 Z M 11.4375 -20.753906 C 11.4375 -28.113281 14.929688 -32.1875 18.742188 -32.1875 C 24.300781 -32.1875 25.835938 -26.3125 25.835938 -20.488281 C 25.835938 -11.964844 24.355469 -0.792969 13.023438 -0.792969 L 11.4375 -0.792969 Z M 11.4375 -20.753906 "/></g></g></g><g fill="#ffffff" fill-opacity="1"><g transform="translate(45.917488, 52.363707)"><g><path d="M 17.578125 0.53125 C 25.890625 0.53125 32.558594 -5.398438 32.558594 -18 C 32.558594 -30.601562 25.78125 -36.53125 17.578125 -36.53125 C 9 -36.53125 2.648438 -30.601562 2.648438 -18 C 2.648438 -5.398438 9.316406 0.53125 17.578125 0.53125 Z M 13.554688 -35.207031 C 17.839844 -36.265625 23.1875 -29.382812 25.414062 -19.90625 C 27.636719 -10.429688 25.996094 -1.90625 21.707031 -0.847656 C 17.472656 0.210938 12.125 -6.617188 9.898438 -16.09375 C 7.675781 -25.625 9.316406 -34.148438 13.554688 -35.207031 Z M 13.554688 -35.207031 "/></g></g></g><g fill="#ffffff" fill-opacity="1"><g transform="translate(79.005596, 52.363707)"><g><path d="M 15.777344 0.53125 C 23.71875 0.53125 29.648438 -2.648438 29.648438 -9.210938 C 29.648438 -22.871094 5.1875 -20.859375 5.1875 -30.546875 C 5.1875 -32.296875 6.351562 -34.042969 8.894531 -34.042969 C 15.777344 -34.042969 21.175781 -28.800781 24.722656 -24.832031 L 28.746094 -32.824219 C 26.949219 -34.042969 22.234375 -36.53125 16.359375 -36.53125 C 8.363281 -36.53125 2.066406 -33.246094 2.066406 -26.472656 C 2.066406 -13.023438 26.417969 -14.292969 26.417969 -5.1875 C 26.417969 -3.125 24.832031 -1.90625 22.925781 -1.90625 C 14.929688 -1.90625 8.417969 -7.835938 5.082031 -14.613281 L 1.058594 -5.136719 C 4.660156 -1.375 9.421875 0.53125 15.777344 0.53125 Z M 15.777344 0.53125 "/></g></g></g><g fill="#ffffff" fill-opacity="1"><g transform="translate(107.593705, 52.363707)"><g><path d="M 4.394531 -35.207031 L 4.394531 -5.929688 C 4.394531 -2.753906 6.460938 0.53125 10.640625 0.53125 C 12.175781 0.53125 16.199219 -2.171875 18.582031 -3.601562 L 18.476562 -3.863281 C 17.683594 -3.546875 16.78125 -3.441406 15.828125 -3.441406 C 12.652344 -3.441406 12.070312 -5.824219 12.070312 -8.417969 C 12.070312 -19.007812 12.070312 -26.472656 12.125 -35.207031 L 17.628906 -35.207031 L 17.628906 -36 L 12.125 -36 C 12.125 -39.496094 12.175781 -43.203125 12.175781 -47.4375 L 0 -35.207031 Z M 4.394531 -35.207031 "/></g></g></g><g fill="#ffffff" fill-opacity="1"><g transform="translate(124.058289, 52.363707)"><g><path d="M 20.59375 0.53125 C 23.984375 0.53125 27.476562 0 30.285156 -1.429688 L 33.300781 -10.90625 L 33.035156 -10.90625 C 30.972656 -8.257812 27.054688 -6.511719 23.082031 -6.511719 C 18.105469 -6.511719 14.082031 -8.683594 11.4375 -12.175781 C 13.710938 -13.394531 19.058594 -16.253906 24.140625 -18.6875 C 28.589844 -20.804688 32.878906 -22.34375 32.878906 -27.105469 C 32.878906 -31.976562 27.742188 -36.53125 19.90625 -36.53125 C 7.625 -36.53125 2.648438 -27.320312 2.648438 -17.472656 C 2.648438 -7.253906 10.746094 0.53125 20.59375 0.53125 Z M 15.988281 -34.996094 C 23.507812 -34.996094 25.199219 -29.914062 25.199219 -27.105469 C 25.199219 -21.335938 14.1875 -14.558594 11.011719 -12.757812 C 8.789062 -15.9375 7.570312 -20.066406 7.570312 -24.566406 C 7.570312 -29.699219 10.113281 -34.996094 15.988281 -34.996094 Z M 15.988281 -34.996094 "/></g></g></g><g fill="#ffffff" fill-opacity="1"><g transform="translate(156.299337, 52.363707)"><g><path d="M 0 -32.71875 L 0 -32.453125 C 2.59375 -32.453125 3.757812 -31.871094 3.757812 -29.011719 L 3.757812 0 L 11.4375 0 L 11.4375 -20.859375 C 11.4375 -26.578125 15.246094 -29.964844 19.378906 -29.964844 C 21.757812 -29.964844 23.664062 -29.171875 25.519531 -28.269531 L 28.324219 -35.207031 C 26.84375 -36.105469 25.042969 -36.53125 22.925781 -36.53125 C 15.988281 -36.53125 12.601562 -30.070312 11.4375 -25.148438 L 11.4375 -36.53125 C 8.683594 -34.941406 3.917969 -33.195312 0 -32.71875 Z M 0 -32.71875 "/></g></g></g><g fill="#ffffff" fill-opacity="1"><g transform="translate(183.563918, 52.363707)"><g><path d="M 0 -32.71875 L 0 -32.453125 C 2.59375 -32.453125 3.757812 -31.871094 3.757812 -29.011719 L 3.757812 0 L 11.4375 0 L 11.4375 -20.859375 C 11.4375 -26.578125 15.246094 -29.964844 19.378906 -29.964844 C 21.757812 -29.964844 23.664062 -29.171875 25.519531 -28.269531 L 28.324219 -35.207031 C 26.84375 -36.105469 25.042969 -36.53125 22.925781 -36.53125 C 15.988281 -36.53125 12.601562 -30.070312 11.4375 -25.148438 L 11.4375 -36.53125 C 8.683594 -34.941406 3.917969 -33.195312 0 -32.71875 Z M 0 -32.71875 "/></g></g></g><g fill="#ffffff" fill-opacity="1"><g transform="translate(149.155228, 68.850802)"><g/></g></g><g fill="#ffffff" fill-opacity="1"><g transform="translate(153.021721, 68.850802)"><g><path d="M 2.027344 -2.464844 C 2.703125 -2.304688 3.164062 -2.125 3.410156 -1.925781 C 3.582031 -1.785156 3.667969 -1.609375 3.667969 -1.394531 C 3.667969 -1.179688 3.621094 -1 3.527344 -0.878906 C 3.296875 -0.554688 2.878906 -0.394531 2.296875 -0.394531 C 1.480469 -0.394531 1.015625 -0.671875 0.917969 -1.226562 L 0.285156 -1.226562 C 0.46875 -0.339844 1.140625 0.101562 2.296875 0.101562 C 2.8125 0.101562 3.242188 -0.0078125 3.589844 -0.238281 C 4.003906 -0.507812 4.222656 -0.910156 4.222656 -1.433594 C 4.222656 -1.863281 4.050781 -2.195312 3.710938 -2.425781 C 3.472656 -2.59375 3.089844 -2.75 2.558594 -2.886719 C 2.019531 -3.027344 1.671875 -3.140625 1.507812 -3.226562 C 1.15625 -3.40625 0.976562 -3.652344 0.984375 -3.972656 C 0.984375 -4.144531 1.015625 -4.289062 1.09375 -4.398438 C 1.292969 -4.699219 1.648438 -4.851562 2.15625 -4.851562 C 2.871094 -4.851562 3.28125 -4.621094 3.390625 -4.175781 L 3.972656 -4.175781 C 3.78125 -4.929688 3.171875 -5.316406 2.15625 -5.316406 C 1.695312 -5.316406 1.285156 -5.191406 0.949219 -4.945312 C 0.601562 -4.699219 0.421875 -4.335938 0.421875 -3.84375 C 0.421875 -3.171875 0.960938 -2.710938 2.027344 -2.464844 Z M 2.027344 -2.464844 "/></g></g></g><g fill="#ffffff" fill-opacity="1"><g transform="translate(159.236511, 68.850802)"><g><path d="M 0.152344 -4.753906 L 1.425781 -4.753906 L 1.425781 -0.015625 L 1.964844 -0.015625 L 1.964844 -4.753906 L 3.234375 -4.753906 L 3.234375 -5.253906 L 0.152344 -5.253906 Z M 0.152344 -4.753906 "/></g></g></g><g fill="#ffffff" fill-opacity="1"><g transform="translate(164.419478, 68.850802)"><g><path d="M 5.191406 -2.632812 C 5.191406 -2.035156 4.976562 -1.523438 4.558594 -1.109375 C 4.136719 -0.683594 3.628906 -0.476562 3.035156 -0.476562 C 2.441406 -0.476562 1.933594 -0.683594 1.515625 -1.109375 C 1.09375 -1.523438 0.886719 -2.035156 0.886719 -2.632812 C 0.886719 -3.21875 1.09375 -3.726562 1.515625 -4.152344 C 1.933594 -4.566406 2.441406 -4.78125 3.035156 -4.78125 C 3.628906 -4.78125 4.136719 -4.566406 4.558594 -4.152344 C 4.976562 -3.726562 5.191406 -3.21875 5.191406 -2.632812 Z M 5.730469 -2.632812 C 5.730469 -3.003906 5.652344 -3.351562 5.515625 -3.679688 C 5.375 -4.003906 5.183594 -4.289062 4.9375 -4.535156 C 4.691406 -4.773438 4.40625 -4.96875 4.082031 -5.105469 C 3.75 -5.246094 3.40625 -5.320312 3.035156 -5.320312 C 2.664062 -5.320312 2.3125 -5.246094 1.988281 -5.105469 C 1.664062 -4.96875 1.378906 -4.773438 1.132812 -4.535156 C 0.886719 -4.289062 0.691406 -4.003906 0.554688 -3.679688 C 0.414062 -3.351562 0.347656 -3.003906 0.347656 -2.632812 C 0.347656 -2.265625 0.414062 -1.910156 0.554688 -1.585938 C 0.691406 -1.253906 0.886719 -0.96875 1.132812 -0.722656 C 1.378906 -0.476562 1.664062 -0.285156 1.988281 -0.144531 C 2.3125 -0.0078125 2.664062 0.0625 3.035156 0.0625 C 3.40625 0.0625 3.75 -0.0078125 4.082031 -0.144531 C 4.40625 -0.285156 4.691406 -0.476562 4.9375 -0.722656 C 5.183594 -0.96875 5.375 -1.253906 5.515625 -1.585938 C 5.652344 -1.910156 5.730469 -2.265625 5.730469 -2.632812 Z M 5.730469 -2.632812 "/></g></g></g><g fill="#ffffff" fill-opacity="1"><g transform="translate(172.289806, 68.850802)"><g><path d="M 1.117188 -2.589844 L 1.117188 -4.722656 L 2.332031 -4.722656 C 2.648438 -4.722656 2.902344 -4.621094 3.097656 -4.421875 C 3.28125 -4.222656 3.382812 -3.972656 3.382812 -3.667969 C 3.382812 -3.359375 3.28125 -3.105469 3.082031 -2.894531 C 2.878906 -2.6875 2.632812 -2.589844 2.332031 -2.589844 Z M 3.921875 -3.660156 C 3.921875 -4.105469 3.75 -4.492188 3.425781 -4.789062 C 3.113281 -5.082031 2.71875 -5.238281 2.257812 -5.238281 L 0.578125 -5.238281 L 0.578125 0 L 1.117188 0 L 1.117188 -2.070312 L 1.742188 -2.070312 L 3.28125 0 L 4.003906 0 L 2.386719 -2.070312 C 2.796875 -2.09375 3.140625 -2.242188 3.425781 -2.511719 C 3.75 -2.8125 3.921875 -3.195312 3.921875 -3.660156 Z M 3.921875 -3.660156 "/></g></g></g><g fill="#ffffff" fill-opacity="1"><g transform="translate(178.273595, 68.850802)"><g><path d="M 1.117188 0 L 1.117188 -5.238281 L 0.578125 -5.238281 L 0.578125 0 Z M 1.117188 0 "/></g></g></g><g fill="#ffffff" fill-opacity="1"><g transform="translate(181.762519, 68.850802)"><g><path d="M 3.6875 0 L 3.6875 -0.5 L 1.117188 -0.5 L 1.117188 -2.363281 L 3.613281 -2.363281 L 3.613281 -2.871094 L 1.117188 -2.871094 L 1.117188 -4.738281 L 3.6875 -4.738281 L 3.6875 -5.238281 L 0.578125 -5.238281 L 0.578125 0 Z M 3.6875 0 "/></g></g></g><g fill="#ffffff" fill-opacity="1"><g transform="translate(187.823306, 68.850802)"><g><path d="M 2.027344 -2.464844 C 2.703125 -2.304688 3.164062 -2.125 3.410156 -1.925781 C 3.582031 -1.785156 3.667969 -1.609375 3.667969 -1.394531 C 3.667969 -1.179688 3.621094 -1 3.527344 -0.878906 C 3.296875 -0.554688 2.878906 -0.394531 2.296875 -0.394531 C 1.480469 -0.394531 1.015625 -0.671875 0.917969 -1.226562 L 0.285156 -1.226562 C 0.46875 -0.339844 1.140625 0.101562 2.296875 0.101562 C 2.8125 0.101562 3.242188 -0.0078125 3.589844 -0.238281 C 4.003906 -0.507812 4.222656 -0.910156 4.222656 -1.433594 C 4.222656 -1.863281 4.050781 -2.195312 3.710938 -2.425781 C 3.472656 -2.59375 3.089844 -2.75 2.558594 -2.886719 C 2.019531 -3.027344 1.671875 -3.140625 1.507812 -3.226562 C 1.15625 -3.40625 0.976562 -3.652344 0.984375 -3.972656 C 0.984375 -4.144531 1.015625 -4.289062 1.09375 -4.398438 C 1.292969 -4.699219 1.648438 -4.851562 2.15625 -4.851562 C 2.871094 -4.851562 3.28125 -4.621094 3.390625 -4.175781 L 3.972656 -4.175781 C 3.78125 -4.929688 3.171875 -5.316406 2.15625 -5.316406 C 1.695312 -5.316406 1.285156 -5.191406 0.949219 -4.945312 C 0.601562 -4.699219 0.421875 -4.335938 0.421875 -3.84375 C 0.421875 -3.171875 0.960938 -2.710938 2.027344 -2.464844 Z M 2.027344 -2.464844 "/></g></g></g><path stroke-linecap="butt" transform="matrix(2.241261, 0, 0, 2.2488, 38.077027, 66.336)" fill="none" stroke-linejoin="miter" d="M 0.000489968 -0.0000276348 L 48.163253 -0.0000276348 " stroke="#ffffff" stroke-width="1" stroke-opacity="1" stroke-miterlimit="4"/></svg>